:version 1.10
:name ASF
:units
  mass 1
  length 1
  angle deg
:documentation
  ASF file generated by Kaydara
:root
  axis xyz
  order  tx ty tz rx ry rz
  position 0 0 0
  orientation 0 0 0
:bonedata
  begin
    id 1
    name RightUpLegDummy
    direction -0.65628 -0.754516 0.00165102
    length 4.76918
    axis 0 0 0 xyz
  end
  begin
    id 2
    name RightUpLeg
    direction -0.145584 -0.923362 0.355256
    length 17.9961
    axis -24.7611 -13.1006 1.78531 xyz
    dof rx ry rz
  end
  begin
    id 3
    name RightLeg
    direction 0.263379 0.172355 -0.949171
    length 13.3386
    axis 89.6202 -21.1929 12.3855 xyz
    dof rx ry rz
  end
  begin
    id 4
    name RightFoot
    direction 0.224283 -0.968777 -0.105675
    length 5.86697
    axis 56.995 -39.6905 17.3365 xyz
    dof rx ry rz
  end
  begin
    id 5
    name RightToes
    direction -0.0806345 -0.9037 0.420506
    length 4.75197
    axis 146.825 -39.7828 17.6019 xyz
    dof rx ry rz
  end
  begin
    id 6
    name SpineDummy
    direction -3.39852e-014 1 9.33296e-014
    length 8.13779
    axis 0 0 0 xyz
  end
  begin
    id 7
    name Spine
    direction -0.156609 0.733703 0.661176
    length 7.14978
    axis 41.2365 5.68757 17.0844 xyz
    dof rx ry rz
  end
  begin
    id 8
    name Spine1
    direction 0 0 0
    length 0
    axis 42.8809 47.8308 -3.36039 xyz
    dof rx ry rz
  end
  begin
    id 9
    name HEadDummy
    direction 0.546431 0.701947 0.456819
    length 3.55512
    axis 42.8809 47.8308 -3.36039 xyz
  end
  begin
    id 10
    name HEad
    direction 0.23444 0.828559 0.508457
    length 7.35827
    axis 51.1864 49.2662 27.4903 xyz
    dof rx ry rz
  end
  begin
    id 11
    name LeftShoulder1Dummy
    direction 0.431183 0.475873 -0.766568
    length 2.49352
    axis 42.8809 47.8308 -3.36039 xyz
  end
  begin
    id 12
    name LeftShoulder1
    direction 0.268187 -0.383402 -0.883786
    length 4.48604
    axis -119.517 0.106469 35.1736 xyz
    dof rx ry rz
  end
  begin
    id 13
    name LeftArm
    direction 0.380567 -0.703221 -0.600541
    length 10.1142
    axis -5.41825 36.2925 7.8293 xyz
    dof rx ry rz
  end
  begin
    id 14
    name LeftForeArm
    direction 0.541071 -0.732356 -0.413396
    length 9.39839
    axis 4.65387 33.7604 7.81644 xyz
    dof rx ry rz
  end
  begin
    id 15
    name LeftHand
    direction 0.847511 -0.389379 -0.360707
    length 3.66142
    axis 7.65593 21.1436 -24.6758 xyz
    dof rx ry rz
  end
  begin
    id 16
    name RightShoulderDummy
    direction -0.692546 0.541855 0.476208
    length 2.49352
    axis 42.8809 47.8308 -3.36039 xyz
  end
  begin
    id 17
    name RightShoulder
    direction -0.870808 -0.316653 0.376065
    length 4.48602
    axis 141.571 51.133 -100.254 xyz
    dof rx ry rz
  end
  begin
    id 18
    name RightArm
    direction 0.366897 -0.87275 0.322015
    length 10.1142
    axis 92.3258 71.2036 138.917 xyz
    dof rx ry rz
  end
  begin
    id 19
    name RightForeArm
    direction 0.702487 -0.694568 0.155197
    length 9.39835
    axis 153.863 41.5092 -176.604 xyz
    dof rx ry rz
  end
  begin
    id 20
    name RightHand
    direction 0.79502 -0.601276 0.0800636
    length 3.66142
    axis 154.247 4.59222 142.9 xyz
    dof rx ry rz
  end
  begin
    id 21
    name LeftUpLegDummy
    direction 0.65628 -0.754516 0.00165102
    length 4.76919
    axis 0 0 0 xyz
  end
  begin
    id 22
    name LeftUpLeg
    direction -0.1277 -0.689368 0.713067
    length 17.9961
    axis -48.3385 -17.8675 0.791927 xyz
    dof rx ry rz
  end
  begin
    id 23
    name LeftLeg
    direction 0.109849 -0.991246 -0.0732378
    length 13.3386
    axis -2.05791 -7.30784 1.72042 xyz
    dof rx ry rz
  end
  begin
    id 24
    name LeftFoot
    direction 0.0448355 -0.272614 0.961078
    length 5.86697
    axis -18.7733 -7.89606 10.2113 xyz
    dof rx ry rz
  end
  begin
    id 25
    name LeftToes
    direction -0.18506 0.293668 0.937823
    length 4.75197
    axis 71.2267 -7.89606 10.2113 xyz
    dof rx ry rz
  end
:hierarchy
  begin
    root RightUpLegDummy SpineDummy LeftUpLegDummy
    RightUpLegDummy RightUpLeg
    RightUpLeg RightLeg
    RightLeg RightFoot
    RightFoot RightToes
    SpineDummy Spine
    Spine Spine1
    Spine1 HEadDummy LeftShoulder1Dummy RightShoulderDummy
    HEadDummy HEad
    LeftShoulder1Dummy LeftShoulder1
    LeftShoulder1 LeftArm
    LeftArm LeftForeArm
    LeftForeArm LeftHand
    RightShoulderDummy RightShoulder
    RightShoulder RightArm
    RightArm RightForeArm
    RightForeArm RightHand
    LeftUpLegDummy LeftUpLeg
    LeftUpLeg LeftLeg
    LeftLeg LeftFoot
    LeftFoot LeftToes
  end

:SAMPLES-PER-SECOND 30
:FULLY-SPECIFIED
:DEGREES
716
root  -0.820651 39.9311 66.2455 -177.083 -88.536 176.593
RightUpLeg  7.98124 4.5544 3.28146
RightLeg  -87.6256 -14.5296 10.1375
RightFoot  20.36 6.17364 -17.9733
RightToes  -1.27222e-014 -6.36111e-015 6.36111e-015
Spine  -42.5129 -20.3121 -17.6165
Spine1  7.87972 -11.7492 42.8579
HEad  27.8332 -42.7408 -16.0156
LeftShoulder1  6.36111e-015 -1.33558e-015 6.49777e-015
LeftArm  38.5013 -10.7476 -44.1917
LeftForeArm  -19.896 -14.7045 -1.44656
LeftHand  -3.64451 -9.70692 -14.4544
RightShoulder  -4.77083e-015 -6.36111e-015 -3.18055e-015
RightArm  58.7853 -28.5473 -5.41023
RightForeArm  -8.25307 -8.99729 0.297637
RightHand  0.258868 -0.0247331 -1.92116
LeftUpLeg  39.7984 24.5195 30.1798
LeftLeg  -20.3546 -10.5261 -2.58749
LeftFoot  2.49232 4.64323 -14.4569
LeftToes  1.27222e-014 -5.20697e-012 1.80337e-011
717
root  -0.935966 39.9561 66.3993 179.284 -87.0741 -179.456
RightUpLeg  8.11264 4.10517 3.88006
RightLeg  -86.5736 -14.243 7.88744
RightFoot  20.3891 5.8778 -17.5203
RightToes  -1.27222e-014 -6.36111e-015 6.36111e-015
Spine  -42.6417 -22.1206 -18.8223
Spine1  8.19154 -12.5987 44.7576
HEad  27.931 -42.3413 -16.2626
LeftShoulder1  6.36111e-015 -1.33558e-015 6.49777e-015
LeftArm  38.3382 -8.56294 -43.7714
LeftForeArm  -18.8292 -12.5752 -1.92768
LeftHand  -3.59182 -9.5019 -14.4484
RightShoulder  -4.77083e-015 -6.36111e-015 -3.18055e-015
RightArm  59.2311 -31.5599 -12.9308
RightForeArm  -6.49323 -7.27502 0.907038
RightHand  0.267149 0.0347761 -2.07273
LeftUpLeg  40.0662 24.3598 30.2502
LeftLeg  -20.4441 -9.54292 -3.46188
LeftFoot  2.17073 4.68408 -14.7205
LeftToes  1.27222e-014 -5.20697e-012 1.80337e-011
718
root  -1.04682 39.9851 66.5185 179.298 -85.3877 -179.114
RightUpLeg  8.16618 3.82938 4.3044
RightLeg  -86.3528 -14.0984 7.10986
RightFoot  20.5737 5.62955 -17.1637
RightToes  -1.27222e-014 -6.36111e-015 6.36111e-015
Spine  -42.8041 -23.3838 -19.6639
Spine1  8.36643 -13.1854 46.1418
HEad  27.9425 -41.6952 -16.25
LeftShoulder1  6.36111e-015 -1.33558e-015 6.49777e-015
LeftArm  38.6637 -7.40535 -44.1395
LeftForeArm  -18.2011 -12.0106 -2.01112
LeftHand  -3.58869 -9.49188 -14.5021
RightShoulder  -4.77083e-015 -6.36111e-015 -3.18055e-015
RightArm  60.5083 -34.9242 -21.5732
RightForeArm  -5.28269 -6.3621 1.22133
RightHand  0.225056 0.34199 -2.20579
LeftUpLeg  40.3922 24.1155 30.1557
LeftLeg  -20.7835 -8.05592 -4.60093
LeftFoot  1.98154 4.70145 -14.857
LeftToes  1.27222e-014 -5.20697e-012 1.80337e-011
719
root  -1.14842 40.0015 66.6055 -179.788 -83.4294 -179.69
RightUpLeg  8.04028 3.68522 4.51979
RightLeg  -86.5867 -14.1834 7.67059
RightFoot  20.6734 5.68889 -17.2688
RightToes  -1.27222e-014 -6.36111e-015 6.36111e-015
Spine  -42.9443 -24.1517 -20.234
Spine1  8.42624 -13.4994 47.1146
HEad  28.0685 -41.4898 -16.3515
LeftShoulder1  6.36111e-015 -1.33558e-015 6.49777e-015
LeftArm  39.0525 -7.00926 -44.8636
LeftForeArm  -17.7302 -13.4766 -1.63525
LeftHand  -3.57722 -9.44469 -14.4357
RightShoulder  -4.77083e-015 -6.36111e-015 -3.18055e-015
RightArm  62.7042 -38.1394 -30.3675
RightForeArm  -4.51946 -6.14642 1.51375
RightHand  0.306111 0.310964 -2.79601
LeftUpLeg  40.8454 24.1513 30.3303
LeftLeg  -21.0965 -6.60086 -5.63524
LeftFoot  1.74869 4.72258 -15.0262
LeftToes  1.27222e-014 -5.20697e-012 1.80337e-011
720
root  -1.24431 39.9977 66.6511 -179.068 -81.3607 179.854
RightUpLeg  7.79628 3.45192 4.47296
RightLeg  -87.101 -14.3845 8.99416
RightFoot  20.688 5.75348 -17.3698
RightToes  -1.27222e-014 -6.36111e-015 6.36111e-015
Spine  -43.0686 -24.681 -20.7152
Spine1  8.53932 -13.6808 48.0816
HEad  28.3212 -41.934 -16.8477
LeftShoulder1  6.36111e-015 -1.33558e-015 6.49777e-015
LeftArm  39.1052 -7.22373 -45.7903
LeftForeArm  -17.5095 -15.6559 -1.08385
LeftHand  -3.54474 -9.31471 -14.3223
RightShoulder  -4.77083e-015 -6.36111e-015 -3.18055e-015
RightArm  65.4972 -40.8847 -38.5231
RightForeArm  -3.83582 -6.15534 1.92038
RightHand  0.621939 -0.352472 -4.17602
LeftUpLeg  41.4572 24.7538 31.2578
LeftLeg  -21.091 -5.88827 -6.09823
LeftFoot  1.43148 4.79325 -15.3938
LeftToes  1.27222e-014 -5.20697e-012 1.80337e-011
721
root  -1.34148 39.9763 66.6606 -178.691 -79.235 179.644
RightUpLeg  7.46605 2.82829 4.08795
RightLeg  -87.7404 -14.5433 10.3429
RightFoot  20.8906 5.64633 -17.234
RightToes  -1.27222e-014 -6.36111e-015 6.36111e-015
Spine  -43.23 -24.9838 -20.9959
Spine1  8.73949 -13.7986 48.9966
HEad  28.4961 -42.8394 -17.6076
LeftShoulder1  6.36111e-015 -1.33558e-015 6.49777e-015
LeftArm  38.6801 -7.7751 -46.6633
LeftForeArm  -17.4956 -17.7241 -0.526326
LeftHand  -3.50453 -9.15633 -14.2228
RightShoulder  -4.77083e-015 -6.36111e-015 -3.18055e-015
RightArm  68.4597 -43.1394 -45.5153
RightForeArm  -3.00508 -6.07605 2.49065
RightHand  1.02494 -1.04629 -6.00503
LeftUpLeg  42.3243 26.0512 33.099
LeftLeg  -20.767 -5.823 -5.85706
LeftFoot  1.11136 4.79779 -15.5567
LeftToes  1.27222e-014 -5.20697e-012 1.80337e-011
722
root  -1.44641 39.9369 66.6446 -178.211 -76.985 179.226
RightUpLeg  7.01341 1.83368 3.36755
RightLeg  -87.9966 -14.5931 10.8446
RightFoot  21.027 5.71958 -17.3646
RightToes  -1.27222e-014 -6.36111e-015 6.36111e-015
Spine  -43.3929 -25.0111 -20.9289
Spine1  8.87795 -13.8774 49.5192
HEad  28.4485 -43.8153 -18.3093
LeftShoulder1  6.36111e-015 -1.33558e-015 6.49777e-015
LeftArm  37.8446 -8.29048 -47.1779
LeftForeArm  -17.4797 -19.7151 0.0527796
LeftHand  -3.47315 -9.03193 -14.0753
RightShoulder  -4.77083e-015 -6.36111e-015 -3.18055e-015
RightArm  71.2808 -44.9116 -51.5984
RightForeArm  -1.46296 -5.35099 3.51955
RightHand  1.2255 -1.18254 -7.1948
LeftUpLeg  43.4778 27.8537 35.4935
LeftLeg  -20.2665 -5.80657 -5.15234
LeftFoot  0.861794 4.63484 -15.1458
LeftToes  1.27222e-014 -5.20697e-012 1.80337e-011
723
root  -1.56271 39.8836 66.5955 -177.451 -74.6 178.44
RightUpLeg  6.46261 0.887481 2.47834
RightLeg  -87.6793 -14.5523 10.299
RightFoot  20.5197 6.06152 -17.8207
RightToes  -1.27222e-014 -6.36111e-015 6.36111e-015
Spine  -43.4715 -24.9589 -20.6796
Spine1  8.83601 -13.997 49.7576
HEad  28.1791 -44.3612 -18.7964
LeftShoulder1  6.36111e-015 -1.33558e-015 6.49777e-015
LeftArm  36.7652 -8.68085 -47.4032
LeftForeArm  -17.4085 -21.2784 0.534137
LeftHand  -3.45693 -8.96676 -13.9318
RightShoulder  -4.77083e-015 -6.36111e-015 -3.18055e-015
RightArm  73.6543 -46.0909 -56.7516
RightForeArm  1.12996 -3.64831 5.11672
RightHand  1.11834 -0.878511 -6.94491
LeftUpLeg  44.7732 29.5871 37.7685
LeftLeg  -19.7427 -5.4859 -4.42884
LeftFoot  0.670488 4.4533 -14.641
LeftToes  1.27222e-014 -5.20697e-012 1.80337e-011
724
root  -1.69475 39.841 66.4928 -176.757 -72.1825 177.64
RightUpLeg  5.9925 0.0222149 1.55515
RightLeg  -87.7174 -14.3859 9.65799
RightFoot  19.7235 6.18633 -17.912
RightToes  -1.27222e-014 -6.36111e-015 6.36111e-015
Spine  -43.5088 -25.0938 -20.5261
Spine1  8.65986 -14.23 50.3244
HEad  27.7561 -44.0118 -19.1613
LeftShoulder1  6.36111e-015 -1.33558e-015 6.49777e-015
LeftArm  35.6014 -9.07624 -47.626
LeftForeArm  -17.2608 -21.8714 0.715735
LeftHand  -3.42216 -8.83279 -13.8566
RightShoulder  -4.77083e-015 -6.36111e-015 -3.18055e-015
RightArm  75.2238 -46.6751 -60.1651
RightForeArm  4.07067 -1.48645 6.83308
RightHand  0.792961 -0.273683 -5.58105
LeftUpLeg  46.1256 30.7497 39.521
LeftLeg  -19.4794 -4.81147 -4.05995
LeftFoot  0.584088 4.42974 -14.6023
LeftToes  1.27222e-014 -5.20697e-012 1.80337e-011
725
root  -1.85084 39.8312 66.3195 -176.385 -69.8879 177.089
RightUpLeg  5.84373 -1.52115 0.526164
RightLeg  -89.1292 -14.0033 9.66543
RightFoot  19.6688 5.96179 -17.5536
RightToes  -1.27222e-014 -6.36111e-015 6.36111e-015
Spine  -43.6759 -25.4599 -20.4976
Spine1  8.47278 -14.5645 51.5978
HEad  27.287 -42.7395 -19.5279
LeftShoulder1  6.36111e-015 -1.33558e-015 6.49777e-015
LeftArm  34.4903 -9.46437 -47.8777
LeftForeArm  -16.8815 -21.8509 0.685756
LeftHand  -3.30626 -8.39092 -13.7223
RightShoulder  -4.77083e-015 -6.36111e-015 -3.18055e-015
RightArm  76.0518 -46.8437 -61.6253
RightForeArm  6.10439 0.199895 7.93728
RightHand  0.411185 0.66923 -4.21216
LeftUpLeg  47.6585 31.3784 40.9352
LeftLeg  -19.7446 -3.80643 -4.05805
LeftFoot  0.787338 4.48102 -14.6794
LeftToes  1.27222e-014 -5.20697e-012 1.80337e-011
726
root  -2.03391 39.8347 66.0619 -176.229 -67.7888 176.75
RightUpLeg  6.11389 -4.03064 -0.550524
RightLeg  -91.3265 -13.3999 9.63052
RightFoot  20.3429 5.93514 -17.6026
RightToes  -1.27222e-014 -6.36111e-015 6.36111e-015
Spine  -44.0815 -25.9408 -20.442
Spine1  8.33266 -14.9677 53.3121
HEad  26.8867 -41.0864 -19.8795
LeftShoulder1  6.36111e-015 -1.33558e-015 6.49777e-015
LeftArm  33.5957 -9.79067 -47.9602
LeftForeArm  -16.1583 -22.1302 0.723865
LeftHand  -3.11689 -7.67671 -13.5137
RightShoulder  -4.77083e-015 -6.36111e-015 -3.18055e-015
RightArm  76.6095 -46.8247 -61.8602
RightForeArm  6.39394 0.704127 7.91581
RightHand  0.184164 1.46694 -3.71554
LeftUpLeg  49.3611 31.8045 42.411
LeftLeg  -20.3348 -2.72747 -4.0796
LeftFoot  1.24726 4.49681 -14.5279
LeftToes  1.27222e-014 -5.20697e-012 1.80337e-011
727
root  -2.22996 39.8177 65.7097 -176.27 -65.7327 176.717
RightUpLeg  6.65887 -5.85497 -0.986302
RightLeg  -92.6944 -12.9227 8.90521
RightFoot  20.6788 6.32425 -18.2449
RightToes  -1.27222e-014 -6.36111e-015 6.36111e-015
Spine  -44.676 -26.3879 -20.2695
Spine1  8.18867 -15.3993 55.004
HEad  26.6205 -39.6198 -20.1821
LeftShoulder1  6.36111e-015 -1.33558e-015 6.49777e-015
LeftArm  33.0762 -10.2296 -47.8268
LeftForeArm  -15.1185 -22.9784 0.89711
LeftHand  -2.96456 -7.10228 -13.4889
RightShoulder  -4.77083e-015 -6.36111e-015 -3.18055e-015
RightArm  77.0038 -46.7601 -61.2445
RightForeArm  4.99979 -0.111704 6.88149
RightHand  0.245696 1.40741 -4.13255
LeftUpLeg  50.9527 32.1485 44.1846
LeftLeg  -20.6651 -1.99197 -3.75309
LeftFoot  1.58658 4.62892 -14.8012
LeftToes  1.27222e-014 -5.20697e-012 1.80337e-011
728
root  -2.41586 39.7742 65.2681 -176.639 -63.4417 177.12
RightUpLeg  7.24668 -4.95293 -0.000449139
RightLeg  -92.7395 -12.8653 8.5717
RightFoot  20.2488 6.72062 -18.8073
RightToes  -1.27222e-014 -6.36111e-015 6.36111e-015
Spine  -45.2438 -26.7415 -20.0921
Spine1  7.9744 -15.7995 56.5314
HEad  26.5006 -38.3485 -20.5434
LeftShoulder1  6.36111e-015 -1.33558e-015 6.49777e-015
LeftArm  32.8839 -10.7953 -47.5693
LeftForeArm  -13.7107 -24.0175 1.05815
LeftHand  -2.89698 -6.838 -13.6479
RightShoulder  -4.77083e-015 -6.36111e-015 -3.18055e-015
RightArm  76.7398 -46.5729 -59.711
RightForeArm  2.98756 -1.60237 5.66247
RightHand  0.509254 0.582442 -4.8467
LeftUpLeg  52.2127 32.2865 46.2383
LeftLeg  -20.2914 -1.4337 -3.10469
LeftFoot  1.69278 4.99732 -15.9195
LeftToes  1.27222e-014 -5.20697e-012 1.80337e-011
